<svg width="1525" height="932" viewBox="0 0 1525 932" fill="none" xmlns="http://www.w3.org/2000/svg">
<g clip-path="url(#clip0_69_330)">
<rect width="1525" height="932" fill="white"/>
<line x1="764.5" y1="44" x2="764.5" y2="508" stroke="#DCDCDC" stroke-width="3"/>
<path d="M700.188 679.047H695.188V698.93H700.188V690.922H704.992V686.82H700.188V679.047ZM671.594 695.766L673.586 699.711C684.25 696.898 690.207 690.531 690.227 681.117H673.352V685.102H684.777C683.977 689.828 679.582 693.773 671.594 695.766ZM676.945 714.164H700.188V700.258H676.945V714.164ZM681.906 710.258V704.281H695.266V710.258H681.906ZM719.641 687.094V681.781H714.641V687.094C714.641 693.695 711.809 700.492 705.773 703.266L708.859 707.289C712.883 705.297 715.617 701.527 717.18 696.938C718.645 701.215 721.223 704.73 725.031 706.625L728.039 702.641C722.336 699.887 719.621 693.461 719.641 687.094ZM729.602 714.594H734.602V696.977H739.836V692.758H734.602V679.047H729.602V714.594ZM769.328 679.047H764.328V699.867H769.328V691.742H774.133V687.602H769.328V679.047ZM741.125 686.078H762.219V682.172H754.172V678.812H749.211V682.172H741.125V686.078ZM742.844 693.383C742.844 697.172 746.438 699.672 751.672 699.672C756.848 699.672 760.422 697.172 760.422 693.383C760.422 689.594 756.848 687.094 751.672 687.094C746.438 687.094 742.844 689.594 742.844 693.383ZM746.047 714.203H769.328V701.234H764.328V703.93H751.008V701.234H746.047V714.203ZM747.727 693.383C747.707 691.723 749.289 690.727 751.672 690.766C754.074 690.727 755.695 691.723 755.695 693.383C755.695 695.102 754.074 696.02 751.672 696.039C749.289 696.02 747.707 695.102 747.727 693.383ZM751.008 710.297V707.758H764.328V710.297H751.008ZM805.578 679.047H800.617V714.594H805.578V679.047ZM777.609 705.805H780.734C786.223 705.824 792.121 705.434 798.352 704.125L797.727 700.023C792.492 701.039 787.336 701.488 782.531 701.566V682.445H777.609V705.805ZM838.312 679.047H833.312V714.672H838.312V696.312H843.547V692.25H838.312V679.047ZM811.672 706.039H814.68C820.949 706.059 825.793 705.922 831.32 704.984L830.773 700.805C826.047 701.625 821.789 701.898 816.633 701.938V686.352H828.352V682.328H811.672V706.039ZM849.445 711.352C851.184 711.352 852.688 709.887 852.688 708.07C852.688 706.273 851.184 704.809 849.445 704.828C847.609 704.809 846.125 706.273 846.164 708.07C846.125 709.887 847.609 711.352 849.445 711.352Z" fill="#1E1E1E"/>
<path d="M585.438 740.781H583V761.094H585.438V740.781ZM563.156 749.531C563.141 753.578 566.281 756.391 570.438 756.375C574.594 756.391 577.703 753.578 577.719 749.531C577.703 745.531 574.594 742.734 570.438 742.719C566.281 742.734 563.141 745.531 563.156 749.531ZM565.562 749.531C565.531 746.812 567.625 744.875 570.438 744.875C573.203 744.875 575.312 746.812 575.312 749.531C575.312 752.297 573.203 754.219 570.438 754.219C567.625 754.219 565.531 752.297 565.562 749.531ZM567.5 767.938H586.312V765.875H569.938V759.031H567.5V767.938ZM611.656 740.75H609.219V768.531H611.656V754.25H616.312V752.219H611.656V740.75ZM590 747.25H606.531V745.219H599.594V741.094H597.156V745.219H590V747.25ZM591.594 755.938C591.578 759.703 594.453 762.312 598.406 762.312C602.328 762.312 605.188 759.703 605.219 755.938C605.188 752.188 602.328 749.562 598.406 749.562C594.453 749.562 591.578 752.188 591.594 755.938ZM593.938 755.938C593.922 753.422 595.812 751.609 598.406 751.625C600.969 751.609 602.844 753.422 602.875 755.938C602.844 758.469 600.969 760.25 598.406 760.219C595.812 760.25 593.922 758.469 593.938 755.938ZM641.562 740.75H639.219V751.938H635.125V741.375H632.875V767.094H635.125V753.969H639.219V768.531H641.562V740.75ZM618.844 761.656H620.625C624.891 761.641 627.719 761.531 631.062 760.844L630.844 758.781C627.75 759.406 625.109 759.547 621.281 759.562V746.188H629.25V744.156H618.844V761.656ZM662.094 743.75H655.031V740.625H652.594V743.75H645.531V745.75H662.094V743.75ZM647.125 752.219C647.109 755.234 649.797 757.203 653.812 757.219C657.797 757.203 660.469 755.234 660.5 752.219C660.469 749.156 657.797 747.219 653.812 747.188C649.797 747.219 647.109 749.156 647.125 752.219ZM649 761.656H664.75V768.531H667.188V759.656H649V761.656ZM649.469 752.219C649.453 750.328 651.188 749.109 653.812 749.094C656.406 749.109 658.156 750.328 658.188 752.219C658.156 754.062 656.406 755.266 653.812 755.25C651.188 755.266 649.453 754.062 649.469 752.219ZM664.75 758.125H667.188V750.531H671.375V748.469H667.188V740.75H664.75V758.125ZM695.438 743.562H675.781V745.594H693.031V746.656C693.016 750.125 693.016 753.781 692.031 758.688L694.438 758.969C695.422 753.797 695.422 750.219 695.438 746.656V743.562ZM673.125 764.594H698.438V762.562H688.75V753.406H686.344V762.562H681.844V753.406H679.406V762.562H673.125V764.594ZM723.281 742.406H710.812V744.406H720.672C720.562 745.469 720.328 746.484 719.922 747.438L709.406 747.938L709.844 749.969L718.953 749.25C717.219 751.812 714.156 753.844 709.562 755.188L710.562 757.219C719.219 754.531 723.25 749.406 723.281 742.406ZM713.812 768.156H731.844V758.281H713.812V768.156ZM716.188 766.156V760.281H729.406V766.156H716.188ZM723.188 750.188H729.375V756.781H731.844V740.781H729.375V748.125H723.188V750.188ZM759.406 742.344H738.844V744.375H743.156V751.844H738.938V753.875H759.312V751.844H755.125V744.375H759.406V742.344ZM736.438 759.156H743.094V768.531H745.594V759.156H752.812V768.531H755.219V759.156H761.875V757.125H736.438V759.156ZM745.594 751.844V744.375H752.719V751.844H745.594ZM787.156 740.75H784.719V751.25H778.844V753.281H784.719V768.594H787.156V740.75ZM765.406 761.875H767.531C772.906 761.875 776.297 761.688 780.344 761.031L780.062 759C776.25 759.688 772.969 759.828 767.875 759.844V753.125H777.156V751.125H767.875V745.344H778.375V743.312H765.406V761.875ZM804.344 758.312C798.391 758.312 794.609 760.188 794.625 763.406C794.609 766.594 798.391 768.469 804.344 768.469C810.297 768.469 814.078 766.594 814.094 763.406C814.078 760.188 810.297 758.312 804.344 758.312ZM791.812 755.719H817.094V753.719H804.688V748.344H802.281V753.719H791.812V755.719ZM794.812 744.188H811.438V744.531C811.438 746.703 811.438 748.766 810.688 751.625L813.094 751.906C813.859 749.031 813.859 746.781 813.875 744.531V742.188H794.812V744.188ZM797.062 763.406C797.047 761.422 799.922 760.203 804.344 760.188C808.781 760.203 811.625 761.422 811.656 763.406C811.625 765.344 808.781 766.531 804.344 766.531C799.922 766.531 797.047 765.344 797.062 763.406ZM836.062 743.75H829V740.625H826.562V743.75H819.5V745.75H836.062V743.75ZM821.094 752.219C821.078 755.234 823.766 757.203 827.781 757.219C831.766 757.203 834.438 755.234 834.469 752.219C834.438 749.156 831.766 747.219 827.781 747.188C823.766 747.219 821.078 749.156 821.094 752.219ZM822.969 761.656H838.719V768.531H841.156V759.656H822.969V761.656ZM823.438 752.219C823.422 750.328 825.156 749.109 827.781 749.094C830.375 749.109 832.125 750.328 832.156 752.219C832.125 754.062 830.375 755.266 827.781 755.25C825.156 755.266 823.422 754.062 823.438 752.219ZM838.719 758.125H841.156V750.531H845.344V748.469H841.156V740.75H838.719V758.125ZM862.5 743.844H848.375V745.844H860.031C860.047 748.062 859.984 751.438 859.219 756.094L861.688 756.312C862.484 751.156 862.484 747.484 862.5 745.281V743.844ZM846.812 760.375L847.125 762.406C852.094 762.438 858.625 762.312 864.469 761.406L864.344 759.562C861.453 759.906 858.297 760.109 855.219 760.219V751.781H852.812V760.297C850.672 760.344 848.641 760.359 846.812 760.375ZM866.094 768.531H868.531V754.5H873.031V752.375H868.531V740.75H866.094V768.531ZM905.719 740.781H903.281V756.656H905.719V740.781ZM883.438 748.75C883.422 752.562 886.5 755.219 890.719 755.219C894.938 755.219 897.984 752.562 898 748.75C897.984 744.875 894.938 742.25 890.719 742.25C886.5 742.25 883.422 744.875 883.438 748.75ZM885.844 748.75C885.812 746.156 887.859 744.328 890.719 744.344C893.547 744.328 895.594 746.156 895.594 748.75C895.594 751.328 893.547 753.141 890.719 753.125C887.859 753.141 885.812 751.328 885.844 748.75ZM887.656 768.156H905.719V758.156H887.656V768.156ZM890.062 766.156V760.156H903.312V766.156H890.062ZM935.75 755.406H910.438V757.406H935.75V755.406ZM913.25 747.25C913.25 750.703 917.062 752.781 923.094 752.781C929.062 752.781 932.891 750.703 932.906 747.25C932.891 743.766 929.062 741.719 923.094 741.75C917.062 741.719 913.25 743.766 913.25 747.25ZM913.719 767.938H932.938V765.875H916.188V759.844H913.719V767.938ZM915.781 747.25C915.766 745.078 918.609 743.719 923.094 743.719C927.547 743.719 930.391 745.078 930.406 747.25C930.391 749.453 927.547 750.781 923.094 750.781C918.609 750.781 915.766 749.453 915.781 747.25ZM961.906 740.75H959.531V768.531H961.906V740.75ZM938.031 747.562H951.875V745.562H946.188V741.5H943.719V745.562H938.031V747.562ZM939.062 755.875C939.047 759.656 941.516 762.281 944.906 762.281C947.469 762.281 949.484 760.812 950.328 758.5H954.375V767.156H956.688V741.375H954.375V750.188H950.469V752.219H954.375V756.531H950.75C950.766 756.312 950.781 756.094 950.781 755.875C950.781 752.078 948.328 749.469 944.906 749.469C941.516 749.469 939.047 752.078 939.062 755.875ZM941.219 755.875C941.219 753.344 942.766 751.594 944.906 751.562C947.062 751.594 948.609 753.344 948.625 755.875C948.609 758.375 947.062 760.172 944.906 760.156C942.766 760.172 941.219 758.375 941.219 755.875Z" fill="#1E1E1E"/>
</g>
<defs>
<clipPath id="clip0_69_330">
<rect width="1525" height="932" fill="white"/>
</clipPath>
</defs>
</svg>
